<?xml version="1.0" encoding="utf-8"?>
<!-- Generator: Adobe Illustrator 28.0.0, SVG Export Plug-In . SVG Version: 6.00 Build 0)  -->
<svg version="1.1" id="Layer_1" xmlns="http://www.w3.org/2000/svg" xmlns:xlink="http://www.w3.org/1999/xlink" x="0px" y="0px"
	 viewBox="0 0 74.3 74" style="enable-background:new 0 0 74.3 74;" xml:space="preserve">
<style type="text/css">
	.st0{fill:#FFFFFF;}
</style>
<g>
	<path class="st0" d="M37.1,0.8C17.2,0.8,0.9,17,0.9,37s16.3,36.2,36.2,36.2S73.4,57,73.4,37S57.1,0.8,37.1,0.8z M15.5,54.6
		c4.8-5.3,10.3-8,17.6-5.4C32,51.4,22,64.2,16.7,63.7C11.1,63.2,13,57.4,15.5,54.6z M37.1,71.7c-7.8,0-14.9-2.6-20.7-6.9
		c7.1,0.4,15-9.8,18.5-15c4,1.5,5.6,3.5,9,5.6c1.4,1.1,11.1-8.8,12.1-10c2.8-3.3,5.5-9.5,1.6-14.4c-2.8-3.5-5.7-4.4-7.9-5.4
		c0.5-0.8,2.2-3,2.7-3.7c1.6-2.1,5.4-4.2,5.1-7.1c0.1-1.6-2.6,1.7-3.6,2.8c-2.1,2.4-4,4.8-5.9,7.3c-5.5-1.6-12.7-2.8-16.2-5.7
		c-3.8-3.1-1.6-6.4,0.1-7.6c4.8-3.4,11.5,0.7,13.8,5.3c0.8,1.4,9.8-5.3,8.6-6.8c-1.5,0.5-2.4,1-3.5,0.6c-2.4-1.4-5-2.3-7.7-2.7
		C37.5,7.2,29.9,8.1,27.6,14c-1.7,3.7-0.5,8.1,2.8,10.5c3.5,2.7,10.1,4.7,14.2,5.7c-0.4,0.7-1.2,2.2-1.6,2.7c-3.7-1-12.1-3.2-15-5.7
		c-2.2-1.9-3.1-3.2-3.1-6.4c0.1-1.1-0.6-0.7-0.8-0.1c-1.6,3.3-2.1,7.5,0.3,10.3c3.1,3.4,9.7,5.5,15.4,7c-0.8,1.7-3,5.1-3.8,6.5
		c-3.3-0.5-6.6-0.3-9.8,0.7c-6.4,2-12,6.7-13.8,11.4c-0.6,1.4-0.8,2.8-0.7,4C6,54.5,2.4,46.2,2.4,37C2.4,17.8,18,2.3,37.1,2.3
		S71.9,17.8,71.9,37S56.3,71.7,37.1,71.7z M51.2,45.2c1.9-1.2,2.8-3.5,2.1-5.7c-1.3-3.4-4.4-4.9-8.4-6.2c0.3-0.8,1-1.8,1.4-2.7
		c2.7,0.5,5.3,1.5,7.6,3.1c2.7,1.7,3.2,6.7,1.4,9.4c-1,1.6-6.5,7.9-7.5,7.1l0,0C44.8,48,41.5,46.2,38,45c0.5-1,3-4.9,3.7-6.3
		c2.8,0.6,5.6,1.5,8.2,2.7c0.8,0.3,2.1,1.9,0.7,3.3C49.9,45.3,50.6,45.6,51.2,45.2z"/>
</g>
</svg>
