<?xml version="1.0" encoding="utf-8"?>
<!-- Generator: Adobe Illustrator 28.0.0, SVG Export Plug-In . SVG Version: 6.00 Build 0)  -->
<svg version="1.1" id="Layer_1" xmlns="http://www.w3.org/2000/svg" xmlns:xlink="http://www.w3.org/1999/xlink" x="0px" y="0px"
	 viewBox="0 0 50.2 59.5" style="enable-background:new 0 0 50.2 59.5;" xml:space="preserve">
<style type="text/css">
	.st0{fill-rule:evenodd;clip-rule:evenodd;fill:#FFFFFF;}
</style>
<g id="Layer_2_00000032634743683440655440000003721166137441144253_">
	<g id="Layer_1-2_00000063593367097518523340000016219812284354607265_">
		<path class="st0" d="M5.3,58.2c-4-0.6-5-4.2-3.4-8.1c1.9-4.8,7.4-9.5,13.8-11.4c3.2-0.9,6.5-1.2,9.8-0.7c0.8-1.5,3-4.9,3.8-6.6
			c-5.8-1.5-12.4-3.6-15.4-7c-2.4-2.8-1.9-7-0.3-10.3c0.1-0.6,0.9-1,0.8,0.1c0,3.2,0.8,4.5,3.1,6.4c2.9,2.4,11.3,4.7,15,5.6
			c0.4-0.6,1.2-2,1.6-2.7c-4.1-1-10.7-3-14.2-5.7c-3.3-2.4-4.4-6.8-2.8-10.5c2.4-5.8,9.9-6.7,15.6-5.9c2.7,0.4,5.3,1.4,7.7,2.7
			c1.1,0.5,2-0.1,3.5-0.6c1.2,1.5-7.8,8.2-8.6,6.8c-2.4-4.6-9-8.6-13.8-5.3c-1.6,1.1-3.9,4.5-0.1,7.5c3.5,2.9,10.7,4.1,16.2,5.7
			c1.9-2.5,3.8-5,5.9-7.3c1-1.1,3.7-4.4,3.6-2.8c0.3,2.9-3.5,5-5.1,7.1c-0.5,0.7-2.2,2.8-2.7,3.7c2.2,1,5.2,1.9,7.9,5.4
			c3.9,4.9,1.2,11-1.6,14.4c-1,1.2-10.7,11.1-12.1,10c-3.4-2.1-5-4.1-9-5.6C20.8,48.6,12.5,59.2,5.3,58.2L5.3,58.2z M6.2,57.1
			c5.2,0.5,15.2-12.3,16.3-14.6C15.2,40,9.7,42.7,5,48C2.5,50.8,0.5,56.6,6.2,57.1z M37.2,43.7c1,0.8,6.5-5.5,7.5-7
			c1.8-2.8,1.4-7.7-1.4-9.4c-2.3-1.5-4.9-2.6-7.6-3c-0.4,0.9-1.1,1.9-1.4,2.7c4,1.3,7.1,2.8,8.4,6.2c0.7,2.1-0.1,4.5-2.1,5.7
			C40,39,39.4,38.7,40,38.2c1.4-1.4,0.1-3-0.7-3.3c-2.6-1.2-5.3-2.2-8.2-2.7c-0.8,1.4-3.2,5.3-3.7,6.3C31,39.6,34.3,41.4,37.2,43.7
			L37.2,43.7z"/>
	</g>
</g>
</svg>
